<svg data-v-423bf9ae="" xmlns="http://www.w3.org/2000/svg" viewBox="0 0 353 90" class="iconLeftSlogan"><!----><!----><!----><g data-v-423bf9ae="" id="83a7ceb3-8959-438e-8751-7369d2d741e5" fill="white" transform="matrix(5.714285850524902,0,0,5.714285850524902,84.49982452392578,-16.11428451538086)"><path d="M7.16 2.82L7.32 3.00Q7.10 3.33 6.80 3.62Q6.50 3.90 6.14 4.12Q5.78 4.34 5.39 4.47Q4.99 4.59 4.59 4.59L4.59 4.59L4.44 4.61Q4.18 4.94 4.04 5.24Q3.90 5.55 3.90 5.97L3.90 5.97L3.90 10.34Q3.90 11.25 3.52 11.95Q3.13 12.66 2.38 13.17L2.38 13.17L2.15 12.91Q2.27 12.78 2.34 12.62Q2.41 12.45 2.44 12.27Q2.47 12.09 2.48 11.91Q2.50 11.73 2.50 11.57L2.50 11.57L2.50 6.76Q2.50 6.44 2.63 6.14Q2.76 5.83 2.97 5.56Q3.17 5.28 3.42 5.04Q3.67 4.81 3.90 4.61L3.90 4.61L1.64 4.59Q1.38 4.59 1.18 4.65Q0.98 4.70 0.81 4.79Q0.64 4.89 0.48 5.03Q0.32 5.17 0.16 5.37L0.16 5.37L-0.04 5.15Q0.18 4.85 0.47 4.50Q0.75 4.16 1.08 3.88Q1.42 3.60 1.79 3.42Q2.17 3.23 2.59 3.23L2.59 3.23L5.54 3.23Q5.72 3.23 5.94 3.21Q6.17 3.19 6.39 3.14Q6.62 3.10 6.82 3.02Q7.02 2.94 7.16 2.82L7.16 2.82ZM12.42 12.03L12.60 12.24Q12.52 12.41 12.40 12.57Q12.27 12.73 12.11 12.85Q11.95 12.97 11.76 13.05Q11.57 13.12 11.37 13.12L11.37 13.12Q10.83 13.12 10.59 12.82Q10.35 12.52 10.35 12.01L10.35 12.01L10.35 9.23Q10.35 9.17 10.34 9.11Q10.34 9.04 10.31 8.99Q10.29 8.93 10.25 8.89Q10.21 8.85 10.14 8.85L10.14 8.85Q9.96 8.85 9.80 9.00Q9.65 9.15 9.52 9.40Q9.39 9.65 9.27 9.97Q9.16 10.29 9.07 10.64Q8.98 10.99 8.92 11.33Q8.85 11.68 8.80 11.99Q8.76 12.30 8.73 12.53Q8.71 12.76 8.71 12.88L8.71 12.88L7.45 13.32L7.45 3.67L8.71 3.23L8.71 10.63Q8.75 10.38 8.84 10.07Q8.93 9.75 9.06 9.42Q9.19 9.09 9.36 8.77Q9.54 8.45 9.75 8.20Q9.97 7.96 10.24 7.80Q10.50 7.65 10.81 7.65L10.81 7.65Q11.12 7.65 11.29 7.79Q11.45 7.93 11.52 8.15Q11.59 8.36 11.60 8.62Q11.61 8.88 11.61 9.12L11.61 9.12L11.61 12.04Q11.61 12.18 11.67 12.29Q11.74 12.41 11.89 12.41L11.89 12.41Q12.06 12.41 12.20 12.28Q12.33 12.15 12.42 12.03L12.42 12.03ZM17.80 11.48L18.01 11.70Q17.77 12.01 17.48 12.28Q17.20 12.54 16.87 12.74Q16.54 12.94 16.17 13.06Q15.80 13.17 15.40 13.17L15.40 13.17Q14.90 13.17 14.47 12.99Q14.05 12.81 13.74 12.49Q13.43 12.17 13.26 11.74Q13.09 11.31 13.09 10.81L13.09 10.81Q13.09 10.40 13.21 10.00Q13.32 9.60 13.54 9.26Q13.75 8.91 14.04 8.61Q14.33 8.31 14.68 8.10Q15.03 7.89 15.42 7.77Q15.80 7.65 16.21 7.65L16.21 7.65Q16.50 7.65 16.76 7.72Q17.01 7.79 17.21 7.93Q17.41 8.08 17.53 8.31Q17.64 8.54 17.64 8.85L17.64 8.85Q17.64 9.11 17.49 9.40Q17.34 9.69 17.09 9.97Q16.84 10.26 16.52 10.54Q16.21 10.81 15.88 11.05Q15.56 11.29 15.26 11.46Q14.96 11.64 14.73 11.74L14.73 11.74Q14.98 12.05 15.32 12.25Q15.65 12.45 16.03 12.45L16.03 12.45Q16.27 12.45 16.52 12.36Q16.76 12.26 16.99 12.12Q17.22 11.98 17.43 11.81Q17.64 11.63 17.80 11.48L17.80 11.48ZM16.36 9.11L16.36 9.11Q16.36 8.95 16.31 8.80Q16.26 8.66 16.16 8.56Q16.06 8.45 15.93 8.38Q15.80 8.32 15.63 8.32L15.63 8.32Q15.32 8.32 15.06 8.53Q14.80 8.75 14.61 9.06Q14.42 9.38 14.32 9.73Q14.21 10.08 14.21 10.35L14.21 10.35Q14.21 10.61 14.29 10.88Q14.38 11.16 14.52 11.41L14.52 11.41Q14.79 11.26 15.11 10.99Q15.44 10.73 15.71 10.41Q15.99 10.09 16.17 9.75Q16.36 9.41 16.36 9.11ZM28.18 2.82L28.35 3.00Q28.13 3.33 27.83 3.62Q27.53 3.90 27.17 4.12Q26.81 4.34 26.41 4.47Q26.02 4.59 25.62 4.59L25.62 4.59L25.46 4.61Q25.20 4.94 25.07 5.24Q24.93 5.55 24.93 5.97L24.93 5.97L24.93 10.34Q24.93 11.25 24.54 11.95Q24.16 12.66 23.41 13.17L23.41 13.17L23.18 12.91Q23.30 12.78 23.37 12.62Q23.43 12.45 23.47 12.27Q23.50 12.09 23.51 11.91Q23.52 11.73 23.52 11.57L23.52 11.57L23.52 6.76Q23.52 6.44 23.66 6.14Q23.79 5.83 23.99 5.56Q24.20 5.28 24.45 5.04Q24.70 4.81 24.93 4.61L24.93 4.61L22.67 4.59Q22.41 4.59 22.21 4.65Q22.00 4.70 21.83 4.79Q21.66 4.89 21.51 5.03Q21.35 5.17 21.18 5.37L21.18 5.37L20.99 5.15Q21.21 4.85 21.50 4.50Q21.78 4.16 22.11 3.88Q22.44 3.60 22.82 3.42Q23.20 3.23 23.62 3.23L23.62 3.23L26.57 3.23Q26.75 3.23 26.97 3.21Q27.19 3.19 27.42 3.14Q27.64 3.10 27.85 3.02Q28.05 2.94 28.18 2.82L28.18 2.82ZM32.74 12.03L32.93 12.24Q32.77 12.57 32.56 12.75Q32.35 12.93 32.16 13.01L32.16 13.01Q31.93 13.10 31.70 13.12L31.70 13.12Q31.39 13.12 31.20 13.02Q31.00 12.93 30.88 12.77Q30.77 12.61 30.72 12.41Q30.68 12.22 30.68 12.01L30.68 12.01L30.68 9.83Q30.63 10.08 30.54 10.42Q30.45 10.76 30.33 11.13Q30.21 11.50 30.04 11.87Q29.88 12.24 29.66 12.52Q29.45 12.81 29.18 12.99Q28.91 13.17 28.57 13.17L28.57 13.17Q28.29 13.17 28.13 13.07Q27.97 12.96 27.89 12.77Q27.82 12.57 27.80 12.30Q27.78 12.03 27.78 11.70L27.78 11.70L27.78 8.74Q27.78 8.57 27.71 8.48Q27.63 8.38 27.51 8.38Q27.39 8.37 27.25 8.46Q27.10 8.55 26.97 8.75L26.97 8.75L26.78 8.54Q26.94 8.22 27.15 8.04Q27.35 7.85 27.55 7.77L27.55 7.77Q27.77 7.68 28.01 7.66L28.01 7.66Q28.32 7.66 28.52 7.76Q28.71 7.85 28.82 8.01Q28.94 8.16 28.98 8.36Q29.03 8.56 29.03 8.76L29.03 8.76L29.03 11.59Q29.03 11.86 29.12 11.94Q29.22 12.02 29.37 11.92Q29.52 11.81 29.71 11.53Q29.90 11.25 30.09 10.78L30.09 10.78Q30.21 10.34 30.33 9.86L30.33 9.86Q30.43 9.46 30.53 8.98Q30.63 8.49 30.68 8.04L30.68 8.04L31.94 7.60L31.94 12.04Q31.94 12.21 32.01 12.30Q32.09 12.40 32.20 12.40Q32.32 12.41 32.46 12.32Q32.60 12.23 32.74 12.03L32.74 12.03ZM36.07 12.03L36.25 12.24Q36.09 12.57 35.89 12.75Q35.68 12.93 35.49 13.01L35.49 13.01Q35.26 13.10 35.02 13.12L35.02 13.12Q34.71 13.12 34.52 13.02Q34.32 12.93 34.21 12.77Q34.10 12.61 34.05 12.41Q34.01 12.22 34.01 12.01L34.01 12.01L34.01 8.43L33.28 8.43L33.58 7.75L34.01 7.75L34.01 5.33L35.26 4.89L35.26 7.75L36.56 7.75L36.28 8.43L35.26 8.43L35.26 12.04Q35.26 12.21 35.33 12.30Q35.41 12.40 35.53 12.40Q35.64 12.41 35.79 12.32Q35.93 12.23 36.07 12.03L36.07 12.03ZM39.46 13.19L39.46 13.19Q38.96 13.19 38.52 13.01Q38.08 12.83 37.75 12.51Q37.43 12.19 37.24 11.75Q37.05 11.32 37.05 10.81L37.05 10.81Q37.05 10.23 37.24 9.72Q37.43 9.21 37.77 8.80Q38.11 8.39 38.57 8.09Q39.03 7.79 39.57 7.62L39.57 7.62L39.77 7.85Q39.46 8.08 39.20 8.37Q38.93 8.66 38.73 9.00Q38.53 9.34 38.42 9.71Q38.30 10.08 38.30 10.47L38.30 10.47Q38.30 10.80 38.40 11.16Q38.49 11.53 38.68 11.83Q38.88 12.13 39.17 12.32Q39.46 12.52 39.84 12.52L39.84 12.52Q40.18 12.52 40.43 12.39Q40.68 12.27 40.84 12.06Q41.01 11.85 41.09 11.56Q41.17 11.28 41.17 10.96L41.17 10.96Q41.17 10.60 41.03 10.21Q40.89 9.82 40.64 9.50Q40.39 9.17 40.05 8.95Q39.72 8.73 39.33 8.70L39.33 8.70Q39.57 8.42 39.86 8.19Q40.15 7.96 40.44 7.75L40.44 7.75Q40.84 7.88 41.14 8.13Q41.45 8.38 41.65 8.71Q41.86 9.04 41.97 9.42Q42.08 9.81 42.08 10.21L42.08 10.21Q42.08 10.75 41.89 11.28Q41.71 11.81 41.36 12.24Q41.02 12.67 40.53 12.93Q40.05 13.19 39.46 13.19ZM46.79 12.11L46.95 12.29Q46.83 12.48 46.65 12.64Q46.47 12.79 46.26 12.90Q46.05 13.01 45.81 13.07Q45.58 13.13 45.36 13.13L45.36 13.13Q45.06 13.13 44.84 13.02Q44.63 12.91 44.49 12.72Q44.35 12.54 44.29 12.29Q44.22 12.04 44.22 11.78L44.22 11.78Q44.22 11.43 44.33 11.03Q44.43 10.63 44.61 10.24Q44.80 9.85 45.03 9.52Q45.26 9.18 45.52 8.96L45.52 8.96Q45.28 9.12 45.00 9.21Q44.71 9.30 44.42 9.30L44.42 9.30Q44.21 9.30 44.05 9.26Q43.89 9.23 43.70 9.13L43.70 9.13L42.99 10.62L42.70 10.50L43.44 8.99Q43.32 8.91 43.19 8.78Q43.05 8.65 42.99 8.53L42.99 8.53L43.94 7.46Q44.00 7.65 44.11 7.84Q44.22 8.03 44.37 8.17Q44.52 8.32 44.70 8.42Q44.88 8.51 45.09 8.51L45.09 8.51Q45.45 8.51 45.79 8.38Q46.14 8.24 46.43 8.05L46.43 8.05L46.61 8.24Q46.35 8.48 46.09 8.77Q45.83 9.06 45.62 9.39Q45.40 9.71 45.27 10.08Q45.14 10.44 45.14 10.81L45.14 10.81Q45.14 11.02 45.20 11.28Q45.26 11.55 45.38 11.78Q45.51 12.02 45.69 12.18Q45.88 12.34 46.14 12.34L46.14 12.34Q46.31 12.34 46.48 12.27Q46.65 12.21 46.79 12.11L46.79 12.11Z"></path></g><!----><g data-v-423bf9ae="" id="272b9bf8-b6d2-4a65-946e-6a03ce1aaa6c" transform="matrix(2.8125,0,0,2.8125,-12.426002502441406,0)" stroke="none" fill="white"><path d="M27.377 11.377L16 0 4.623 11.377 16 22.753l11.377-11.376zM16 6.026l5.35 5.35L16 16.727l-5.35-5.35L16 6.026zM27.426 14.969l-5.664 5.664V32h5.664zM10.238 20.633l-5.664-5.664V32h5.664z"></path></g><!----><g data-v-423bf9ae="" id="87d5839b-cdae-4cd2-9d1a-e9e6c5217163" fill="white" transform="matrix(1.7800085544586182,0,0,1.7800085544586182,83.3812484741211,53.52076721191406)"><path d="M6.12 3.78L6.12 9.97Q6.12 11.47 5.35 12.31Q4.58 13.16 3.18 13.16L3.18 13.16Q1.90 13.16 1.20 12.51Q0.50 11.86 0.50 10.74L0.50 10.74Q0.50 10.37 0.56 10.08L0.56 10.08L1.22 9.93Q1.18 10.26 1.18 10.57L1.18 10.57Q1.18 12.52 3.16 12.52L3.16 12.52Q4.34 12.52 4.88 11.83Q5.42 11.14 5.42 9.81L5.42 9.81L5.42 3.78L6.12 3.78ZM22.95 3.78L22.95 9.65Q22.95 11.35 22.02 12.26Q21.10 13.16 19.39 13.16L19.39 13.16Q17.68 13.16 16.75 12.26Q15.82 11.35 15.82 9.65L15.82 9.65L15.82 3.78L16.52 3.78L16.52 9.51Q16.52 10.99 17.25 11.75Q17.98 12.52 19.39 12.52L19.39 12.52Q20.79 12.52 21.52 11.75Q22.25 10.99 22.25 9.51L22.25 9.51L22.25 3.78L22.95 3.78ZM35.60 3.64Q38.21 3.64 39.09 5.68L39.09 5.68L38.49 6.17Q38.14 5.18 37.44 4.73Q36.75 4.28 35.62 4.28L35.62 4.28Q34.80 4.28 34.20 4.54Q33.60 4.79 33.28 5.22Q32.97 5.66 32.97 6.20L32.97 6.20Q32.97 6.73 33.24 7.08Q33.50 7.43 34.14 7.68Q34.78 7.92 35.90 8.12L35.90 8.12Q37.70 8.43 38.46 9.02Q39.21 9.60 39.21 10.64L39.21 10.64Q39.21 11.38 38.78 11.96Q38.35 12.53 37.55 12.84Q36.76 13.16 35.74 13.16L35.74 13.16Q34.29 13.16 33.28 12.58Q32.28 12.00 31.92 10.95L31.92 10.95L32.54 10.47Q32.82 11.47 33.66 11.99Q34.51 12.52 35.76 12.52L35.76 12.52Q36.96 12.52 37.72 12.03Q38.49 11.54 38.49 10.68L38.49 10.68Q38.49 9.94 37.86 9.51Q37.24 9.07 35.70 8.81L35.70 8.81Q34.40 8.58 33.64 8.26Q32.89 7.94 32.56 7.46Q32.23 6.99 32.23 6.27L32.23 6.27Q32.23 5.56 32.64 4.96Q33.05 4.35 33.82 4.00Q34.58 3.64 35.60 3.64L35.60 3.64ZM54.29 3.78L54.29 4.42L50.92 4.42L50.92 13.02L50.22 13.02L50.22 4.42L46.84 4.42L46.84 3.78L54.29 3.78ZM79.91 13.02L78.75 10.12L74.33 10.12L73.18 13.02L72.44 13.02L76.13 3.78L76.96 3.78L80.65 13.02L79.91 13.02ZM74.59 9.48L78.50 9.48L76.89 5.45L76.55 4.47L76.54 4.47L76.20 5.42L74.59 9.48ZM92.12 3.64Q94.72 3.64 95.61 5.68L95.61 5.68L95.00 6.17Q94.65 5.18 93.96 4.73Q93.27 4.28 92.13 4.28L92.13 4.28Q91.32 4.28 90.72 4.54Q90.12 4.79 89.80 5.22Q89.49 5.66 89.49 6.20L89.49 6.20Q89.49 6.73 89.75 7.08Q90.02 7.43 90.66 7.68Q91.29 7.92 92.41 8.12L92.41 8.12Q94.22 8.43 94.98 9.02Q95.73 9.60 95.73 10.64L95.73 10.64Q95.73 11.38 95.30 11.96Q94.86 12.53 94.07 12.84Q93.28 13.16 92.26 13.16L92.26 13.16Q90.80 13.16 89.80 12.58Q88.80 12.00 88.44 10.95L88.44 10.95L89.05 10.47Q89.33 11.47 90.18 11.99Q91.03 12.52 92.27 12.52L92.27 12.52Q93.48 12.52 94.24 12.03Q95.00 11.54 95.00 10.68L95.00 10.68Q95.00 9.94 94.38 9.51Q93.76 9.07 92.22 8.81L92.22 8.81Q90.92 8.58 90.16 8.26Q89.40 7.94 89.08 7.46Q88.75 6.99 88.75 6.27L88.75 6.27Q88.75 5.56 89.16 4.96Q89.57 4.35 90.34 4.00Q91.10 3.64 92.12 3.64L92.12 3.64ZM110.87 13.02L107.48 8.04L105.63 9.91L105.63 13.02L104.93 13.02L104.93 3.78L105.63 3.78L105.63 8.96L110.70 3.78L111.62 3.78L107.97 7.52L111.72 13.02L110.87 13.02ZM120.55 11.87Q120.83 11.87 121.01 12.05Q121.18 12.22 121.18 12.50L121.18 12.50Q121.18 12.78 121.01 12.96Q120.83 13.13 120.55 13.13L120.55 13.13Q120.27 13.13 120.10 12.96Q119.92 12.78 119.92 12.50L119.92 12.50Q119.92 12.22 120.10 12.05Q120.27 11.87 120.55 11.87L120.55 11.87Z"></path></g></svg>